<svg id="svg" xmlns="http://www.w3.org/2000/svg" xmlns:xlink="http://www.w3.org/1999/xlink" width="400" height="351.41700404858295" viewBox="0, 0, 400,351.41700404858295" version="1.1"><g id="svgg"><path id="path0" d="M194.248 34.986 C 188.751 36.364,186.407 37.287,183.812 39.099 C 179.911 41.821,176.842 44.626,176.020 46.221 C 175.621 46.995,174.789 48.260,174.172 49.033 C 167.985 56.784,167.191 69.265,172.272 78.894 C 175.541 85.087,182.418 91.261,188.343 93.322 C 192.401 94.733,192.254 94.327,192.267 104.218 C 192.278 113.036,192.402 113.693,194.211 114.561 C 196.515 115.667,206.103 115.091,207.090 113.787 C 207.122 113.744,207.241 109.580,207.353 104.535 C 207.589 93.911,207.343 94.607,211.328 93.317 C 228.596 87.727,236.733 62.130,225.446 48.907 C 224.845 48.203,224.025 46.995,223.624 46.221 C 219.694 38.645,203.842 32.582,194.248 34.986 M203.629 52.039 C 209.713 54.240,213.222 58.339,213.587 63.674 C 214.130 71.596,211.002 75.910,203.091 78.148 L 199.824 79.073 196.461 78.096 C 188.871 75.890,186.116 72.444,186.155 65.202 C 186.184 59.970,186.812 58.516,190.358 55.478 C 195.205 51.327,198.967 50.352,203.629 52.039 M113.884 68.164 C 108.204 69.178,104.689 70.617,101.114 73.392 C 100.441 73.914,99.412 74.604,98.826 74.927 C 98.093 75.330,97.627 75.960,97.330 76.950 C 97.093 77.741,96.402 78.980,95.794 79.704 C 94.777 80.915,93.308 83.170,92.148 85.301 C 91.713 86.101,90.687 91.009,89.995 95.606 C 89.801 96.894,89.857 98.361,90.162 100.000 C 90.414 101.353,90.882 103.884,91.201 105.624 C 91.993 109.942,96.582 117.544,100.000 120.199 C 110.316 128.213,122.263 130.405,131.561 125.989 C 136.834 123.485,136.902 123.513,145.816 131.947 C 151.760 137.570,152.074 137.610,156.399 133.304 C 161.268 128.455,161.271 128.332,156.630 123.404 C 149.251 115.570,147.979 114.029,147.979 112.921 C 147.979 111.614,148.798 109.231,149.680 107.973 C 151.313 105.645,152.137 97.394,151.284 91.916 C 150.329 85.782,145.247 77.697,139.988 73.944 C 134.755 70.210,131.983 68.993,126.784 68.146 C 120.397 67.107,119.797 67.107,113.884 68.164 M277.663 67.265 C 277.557 67.373,275.434 67.789,272.944 68.188 C 270.455 68.588,267.774 69.221,266.986 69.597 C 261.286 72.312,256.153 76.195,254.801 78.813 C 254.430 79.532,253.672 80.640,253.118 81.273 C 247.869 87.273,246.297 101.328,250.111 108.149 C 250.936 109.623,251.434 111.038,251.551 112.232 L 251.729 114.060 249.156 116.872 C 247.741 118.418,245.217 121.107,243.547 122.847 C 238.405 128.204,238.388 128.622,243.143 133.127 C 247.777 137.517,248.067 137.492,253.540 132.246 C 262.770 123.399,262.626 123.457,268.579 126.209 L 271.880 127.736 278.735 127.752 C 286.317 127.770,288.233 127.366,292.794 124.790 C 297.567 122.096,301.082 119.330,302.496 117.159 C 303.149 116.156,303.846 115.235,304.046 115.112 C 304.246 114.988,304.886 113.989,305.469 112.892 C 306.051 111.794,306.854 110.380,307.254 109.749 C 308.069 108.460,309.793 99.607,309.736 97.008 C 309.594 90.600,307.538 84.321,304.265 80.298 C 303.785 79.709,302.998 78.336,302.517 77.248 C 301.876 75.798,301.329 75.111,300.470 74.677 C 299.825 74.351,298.902 73.726,298.418 73.288 C 295.075 70.255,279.232 65.658,277.663 67.265 M125.659 84.571 C 126.239 84.833,127.504 85.601,128.471 86.277 C 129.438 86.953,130.545 87.725,130.932 87.992 C 132.998 89.419,135.313 96.554,134.586 99.254 C 131.172 111.935,116.429 115.520,109.436 105.370 C 104.257 97.851,106.312 89.278,114.353 84.857 C 116.486 83.685,123.316 83.512,125.659 84.571 M284.007 84.380 C 286.309 84.964,290.635 88.546,291.834 90.861 C 292.749 92.630,293.126 98.993,292.453 101.320 C 290.876 106.776,284.941 111.254,279.306 111.241 C 266.316 111.212,259.831 93.538,270.357 86.853 C 271.452 86.158,272.762 85.291,273.268 84.926 C 274.879 83.765,280.459 83.481,284.007 84.380 M194.024 128.318 C 176.640 130.166,158.249 145.269,154.273 160.960 C 153.903 162.423,153.295 164.336,152.923 165.210 C 151.246 169.149,151.244 181.389,152.920 185.641 C 153.283 186.560,153.906 188.593,154.306 190.159 C 154.706 191.724,155.581 194.038,156.251 195.301 C 156.921 196.565,157.469 197.810,157.469 198.069 C 157.469 198.328,157.983 199.225,158.612 200.062 C 159.240 200.899,160.196 202.235,160.736 203.030 C 161.707 204.460,166.890 209.880,168.481 211.129 C 172.617 214.376,176.586 217.223,176.977 217.223 C 177.239 217.223,178.524 217.781,179.833 218.464 C 181.142 219.146,183.410 220.010,184.872 220.383 C 186.335 220.757,188.241 221.317,189.108 221.629 C 194.047 223.402,204.792 223.389,210.545 221.602 C 211.995 221.152,214.209 220.523,215.466 220.204 C 216.722 219.885,218.225 219.336,218.805 218.984 C 219.385 218.631,220.840 217.947,222.038 217.464 C 226.310 215.739,235.748 207.460,239.615 202.045 C 246.604 192.257,250.329 173.823,246.951 165.739 C 246.691 165.118,246.055 163.136,245.537 161.334 C 243.182 153.148,237.267 144.469,230.522 139.300 C 229.813 138.757,228.073 137.423,226.655 136.335 C 218.850 130.345,205.591 127.088,194.024 128.318 M81.861 145.835 C 76.960 146.852,73.407 148.345,71.353 150.251 C 70.870 150.700,69.684 151.473,68.717 151.970 C 62.887 154.966,57.482 164.522,56.760 173.111 C 55.937 182.901,61.565 195.261,68.503 198.902 C 69.378 199.361,70.897 200.342,71.877 201.083 C 79.455 206.804,92.316 207.383,101.946 202.437 C 107.903 199.377,114.439 192.540,116.038 187.698 C 117.690 182.690,117.465 182.781,128.230 182.779 C 138.616 182.776,138.489 182.868,138.489 175.395 C 138.489 167.948,138.916 168.236,127.540 168.014 C 117.173 167.812,117.437 167.895,116.467 164.525 C 114.904 159.096,108.460 151.795,102.643 148.862 C 101.383 148.227,99.835 147.439,99.204 147.111 C 97.900 146.435,91.910 145.222,88.752 144.995 C 87.297 144.891,85.161 145.151,81.861 145.835 M305.494 145.739 C 303.296 146.192,301.002 146.828,300.397 147.151 C 299.792 147.474,298.269 148.246,297.012 148.868 C 291.313 151.687,285.231 158.581,283.458 164.234 C 282.311 167.892,282.555 167.811,272.038 168.014 C 260.412 168.239,261.336 167.598,261.336 175.435 L 261.336 181.079 262.322 181.928 C 263.305 182.774,263.338 182.777,271.636 182.777 C 281.918 182.778,281.965 182.793,283.314 186.467 C 287.718 198.463,302.504 207.805,313.931 205.812 C 321.676 204.462,326.283 202.916,328.997 200.756 C 329.674 200.217,330.762 199.471,331.414 199.097 C 332.072 198.721,333.758 196.853,335.201 194.903 C 336.631 192.970,338.297 190.777,338.903 190.029 C 344.209 183.477,344.394 167.887,339.242 161.396 C 337.829 159.616,334.703 155.328,333.871 154.029 C 333.465 153.394,332.637 152.619,332.032 152.308 C 331.426 151.996,330.286 151.214,329.498 150.570 C 327.338 148.806,322.272 146.705,318.629 146.063 C 316.889 145.757,314.833 145.354,314.060 145.169 C 312.009 144.678,309.985 144.812,305.494 145.739 M211.526 149.942 C 216.942 151.054,218.460 153.496,216.128 157.340 C 214.874 159.405,214.128 159.489,205.243 158.557 C 197.237 157.717,190.974 160.452,191.284 164.652 C 191.407 166.327,192.083 166.553,197.075 166.588 C 200.455 166.612,201.406 167.325,201.406 169.836 C 201.406 173.125,200.588 173.636,195.314 173.643 C 190.474 173.649,189.807 173.803,189.807 174.918 C 189.807 176.151,190.973 176.450,195.779 176.450 C 200.315 176.450,201.035 176.781,201.627 179.143 C 202.347 182.009,201.146 182.881,196.268 183.039 C 189.770 183.249,188.898 184.023,191.369 187.390 C 194.512 191.674,199.956 193.199,208.176 192.099 C 214.679 191.228,216.867 192.319,216.870 196.432 C 216.875 201.886,202.001 203.897,192.337 199.750 C 187.579 197.708,184.617 194.398,180.059 186.028 C 178.680 183.494,178.404 183.304,175.612 182.965 C 171.052 182.412,170.578 178.504,174.828 176.506 C 176.909 175.528,176.988 174.630,175.079 173.656 C 170.995 171.572,171.586 167.053,176.022 166.443 C 178.520 166.099,181.090 163.844,181.975 161.219 C 183.309 157.262,191.626 150.733,196.578 149.756 C 199.281 149.222,208.589 149.338,211.526 149.942 M91.389 162.039 C 98.231 163.336,102.940 171.636,100.915 178.827 C 99.553 183.662,98.396 185.296,94.838 187.409 L 92.280 188.928 87.880 188.928 C 82.311 188.928,81.136 188.431,77.889 184.708 C 72.395 178.410,72.342 172.577,77.722 166.354 C 81.332 162.180,85.385 160.900,91.389 162.039 M318.003 163.161 C 322.358 165.776,323.485 167.211,325.335 172.497 L 326.351 175.399 325.126 179.000 C 323.707 183.174,322.057 185.261,318.357 187.565 L 316.169 188.928 311.775 188.928 L 307.381 188.928 305.006 187.591 C 296.384 182.739,295.977 169.165,304.292 163.748 C 308.116 161.256,314.385 160.988,318.003 163.161 M150.818 214.796 C 150.350 214.983,148.769 216.278,147.303 217.674 C 137.105 227.392,136.756 227.553,131.549 224.938 C 124.370 221.333,109.726 222.840,104.218 227.750 C 103.831 228.094,102.645 228.925,101.582 229.597 C 95.165 233.647,89.938 244.533,89.992 253.735 C 90.007 256.349,91.630 264.953,92.374 266.366 C 94.457 270.319,95.016 271.258,95.761 272.056 C 96.212 272.540,96.820 273.410,97.112 273.990 C 97.778 275.313,98.605 276.027,100.176 276.634 C 100.852 276.896,102.355 277.742,103.515 278.515 C 107.034 280.861,107.352 281.065,108.176 281.504 C 109.141 282.018,118.285 283.656,120.187 283.656 C 129.166 283.656,140.830 278.422,144.461 272.764 C 145.075 271.807,146.049 270.431,146.625 269.706 C 151.858 263.121,153.358 250.192,149.710 243.107 C 146.860 237.571,146.755 237.842,155.026 229.331 C 161.500 222.670,161.496 222.692,156.678 217.962 C 153.043 214.393,152.526 214.114,150.818 214.796 M242.949 218.051 C 237.940 223.141,237.844 222.883,248.946 234.180 C 252.401 237.697,252.506 238.790,249.822 243.268 C 247.035 247.919,247.504 258.803,250.798 265.901 C 253.203 271.082,256.035 274.643,259.328 276.623 C 260.626 277.403,263.063 278.890,264.744 279.927 C 268.170 282.040,268.037 281.995,273.664 282.957 C 282.683 284.499,290.756 282.783,297.012 277.993 C 297.689 277.475,298.856 276.837,299.606 276.576 C 300.356 276.314,301.274 275.704,301.646 275.221 C 303.396 272.944,305.800 269.471,305.800 269.220 C 305.800 269.066,306.266 268.178,306.837 267.247 C 308.180 265.053,309.839 256.013,309.561 252.397 C 309.058 245.847,308.163 242.723,305.725 239.000 C 304.896 237.735,303.743 235.947,303.163 235.028 C 302.583 234.109,301.793 232.861,301.406 232.255 C 296.652 224.800,277.018 220.315,268.526 224.745 C 264.151 227.027,262.564 227.058,260.576 224.902 C 257.932 222.033,250.152 215.188,249.066 214.775 C 247.121 214.036,246.654 214.286,242.949 218.051 M194.501 236.096 C 192.561 236.475,192.457 236.961,192.267 246.573 C 192.062 256.943,192.282 256.347,188.118 257.824 C 179.184 260.991,171.342 270.340,169.432 280.102 C 167.282 291.088,171.872 303.007,180.614 309.139 C 181.992 310.105,183.715 311.347,184.442 311.899 C 192.030 317.651,207.070 317.830,214.696 312.260 C 215.723 311.510,217.689 310.105,219.066 309.139 C 227.794 303.009,232.396 291.003,230.226 280.020 C 228.322 270.381,220.163 260.673,211.558 257.807 C 207.379 256.415,207.587 256.980,207.381 246.449 C 207.189 236.577,207.221 236.739,205.348 236.219 C 204.106 235.874,196.098 235.783,194.501 236.096 M122.792 239.746 C 135.054 243.151,138.730 257.716,128.981 264.264 C 123.476 267.962,117.207 268.313,112.619 265.182 C 104.427 259.592,105.023 246.154,113.664 241.605 C 117.451 239.611,120.251 239.041,122.792 239.746 M284.990 241.171 C 294.411 245.905,295.820 258.071,287.721 264.747 C 283.881 267.912,275.514 268.068,271.529 265.049 C 262.128 257.925,262.896 246.954,273.187 241.376 C 277.819 238.865,280.316 238.822,284.990 241.171 M203.866 272.475 C 215.528 274.667,217.135 294.037,205.979 297.922 C 205.107 298.226,203.404 298.856,202.195 299.323 C 200.094 300.134,199.931 300.147,198.505 299.621 C 197.684 299.318,195.984 298.751,194.728 298.360 C 185.434 295.470,182.965 282.616,190.356 275.596 C 193.061 273.026,193.862 272.650,197.797 272.101 C 199.883 271.810,200.550 271.851,203.866 272.475 " stroke="none" fill="#eaecf2" fill-rule="evenodd"></path><path id="path1" d="M0.000 175.747 L 0.000 351.494 200.000 351.494 L 400.000 351.494 400.000 175.747 L 400.000 0.000 200.000 0.000 L 0.000 0.000 0.000 175.747 M208.547 35.828 C 214.374 37.472,221.708 42.528,223.624 46.221 C 224.025 46.995,224.845 48.203,225.446 48.907 C 228.197 52.131,230.920 60.292,230.929 65.345 C 230.949 76.761,221.701 89.959,211.328 93.317 C 207.343 94.607,207.589 93.911,207.353 104.535 C 207.241 109.580,207.122 113.744,207.090 113.787 C 206.103 115.091,196.515 115.667,194.211 114.561 C 192.402 113.693,192.278 113.036,192.267 104.218 C 192.254 94.327,192.401 94.733,188.343 93.322 C 170.783 87.215,163.032 62.990,174.172 49.033 C 174.789 48.260,175.621 46.995,176.020 46.221 C 177.593 43.171,184.989 37.698,189.324 36.376 C 197.150 33.989,201.581 33.863,208.547 35.828 M195.864 52.127 C 189.077 54.753,186.191 58.640,186.155 65.202 C 186.116 72.444,188.871 75.890,196.461 78.096 L 199.824 79.073 203.091 78.148 C 211.002 75.910,214.130 71.596,213.587 63.674 C 213.222 58.339,209.713 54.240,203.629 52.039 C 199.980 50.718,199.489 50.724,195.864 52.127 M126.784 68.146 C 131.983 68.993,134.755 70.210,139.988 73.944 C 145.247 77.697,150.329 85.782,151.284 91.916 C 152.137 97.394,151.313 105.645,149.680 107.973 C 148.798 109.231,147.979 111.614,147.979 112.921 C 147.979 114.029,149.251 115.570,156.630 123.404 C 161.271 128.332,161.268 128.455,156.399 133.304 C 152.074 137.610,151.760 137.570,145.816 131.947 C 136.902 123.513,136.834 123.485,131.561 125.989 C 122.263 130.405,110.316 128.213,100.000 120.199 C 96.582 117.544,91.993 109.942,91.201 105.624 C 90.882 103.884,90.414 101.353,90.162 100.000 C 89.857 98.361,89.801 96.894,89.995 95.606 C 90.687 91.009,91.713 86.101,92.148 85.301 C 93.308 83.170,94.777 80.915,95.794 79.704 C 96.402 78.980,97.093 77.741,97.330 76.950 C 97.627 75.960,98.093 75.330,98.826 74.927 C 99.412 74.604,100.441 73.914,101.114 73.392 C 104.689 70.617,108.204 69.178,113.884 68.164 C 119.797 67.107,120.397 67.107,126.784 68.146 M285.764 68.160 C 290.697 68.928,295.965 71.063,298.418 73.288 C 298.902 73.726,299.825 74.351,300.470 74.677 C 301.329 75.111,301.876 75.798,302.517 77.248 C 302.998 78.336,303.785 79.709,304.265 80.298 C 307.538 84.321,309.594 90.600,309.736 97.008 C 309.793 99.607,308.069 108.460,307.254 109.749 C 306.854 110.380,306.051 111.794,305.469 112.892 C 304.886 113.989,304.246 114.988,304.046 115.112 C 303.846 115.235,303.149 116.156,302.496 117.159 C 301.082 119.330,297.567 122.096,292.794 124.790 C 288.233 127.366,286.317 127.770,278.735 127.752 L 271.880 127.736 268.579 126.209 C 262.626 123.457,262.770 123.399,253.540 132.246 C 248.067 137.492,247.777 137.517,243.143 133.127 C 238.388 128.622,238.405 128.204,243.547 122.847 C 245.217 121.107,247.741 118.418,249.156 116.872 L 251.729 114.060 251.551 112.232 C 251.434 111.038,250.936 109.623,250.111 108.149 C 246.297 101.328,247.869 87.273,253.118 81.273 C 253.672 80.640,254.430 79.532,254.801 78.813 C 256.153 76.195,261.286 72.312,266.986 69.597 C 267.774 69.221,270.455 68.588,272.944 68.188 C 275.434 67.789,277.557 67.373,277.663 67.265 C 277.904 67.018,279.730 67.220,285.764 68.160 M117.517 84.021 C 113.010 84.621,107.940 88.919,107.213 92.758 C 106.212 98.032,106.842 101.604,109.436 105.370 C 116.429 115.520,131.172 111.935,134.586 99.254 C 135.313 96.554,132.998 89.419,130.932 87.992 C 130.545 87.725,129.438 86.953,128.471 86.277 C 125.229 84.010,122.235 83.393,117.517 84.021 M276.197 83.997 C 275.092 84.143,273.773 84.562,273.268 84.926 C 272.762 85.291,271.452 86.158,270.357 86.853 C 265.424 89.986,263.645 96.788,266.309 102.332 C 271.363 112.851,283.894 114.463,290.211 105.408 C 293.889 100.136,293.838 92.068,290.105 88.498 C 285.900 84.477,282.026 83.223,276.197 83.997 M205.371 128.303 C 212.207 129.086,222.049 132.800,226.655 136.335 C 228.073 137.423,229.813 138.757,230.522 139.300 C 237.267 144.469,243.182 153.148,245.537 161.334 C 246.055 163.136,246.691 165.118,246.951 165.739 C 250.329 173.823,246.604 192.257,239.615 202.045 C 235.748 207.460,226.310 215.739,222.038 217.464 C 220.840 217.947,219.385 218.631,218.805 218.984 C 218.225 219.336,216.722 219.885,215.466 220.204 C 214.209 220.523,211.995 221.152,210.545 221.602 C 204.792 223.389,194.047 223.402,189.108 221.629 C 188.241 221.317,186.335 220.757,184.872 220.383 C 183.410 220.010,181.142 219.146,179.833 218.464 C 178.524 217.781,177.239 217.223,176.977 217.223 C 176.586 217.223,172.617 214.376,168.481 211.129 C 166.890 209.880,161.707 204.460,160.736 203.030 C 160.196 202.235,159.240 200.899,158.612 200.062 C 157.983 199.225,157.469 198.328,157.469 198.069 C 157.469 197.810,156.921 196.565,156.251 195.301 C 155.581 194.038,154.706 191.724,154.306 190.159 C 153.906 188.593,153.283 186.560,152.920 185.641 C 151.244 181.389,151.246 169.149,152.923 165.210 C 153.295 164.336,153.903 162.423,154.273 160.960 C 159.321 141.037,183.216 125.765,205.371 128.303 M94.458 145.831 C 96.437 146.208,98.572 146.784,99.204 147.111 C 99.835 147.439,101.383 148.227,102.643 148.862 C 108.460 151.795,114.904 159.096,116.467 164.525 C 117.437 167.895,117.173 167.812,127.540 168.014 C 138.916 168.236,138.489 167.948,138.489 175.395 C 138.489 182.868,138.616 182.776,128.230 182.779 C 117.465 182.781,117.690 182.690,116.038 187.698 C 114.439 192.540,107.903 199.377,101.946 202.437 C 92.316 207.383,79.455 206.804,71.877 201.083 C 70.897 200.342,69.378 199.361,68.503 198.902 C 61.565 195.261,55.937 182.901,56.760 173.111 C 57.482 164.522,62.887 154.966,68.717 151.970 C 69.684 151.473,70.870 150.700,71.353 150.251 C 75.904 146.027,85.670 144.159,94.458 145.831 M314.060 145.169 C 314.833 145.354,316.889 145.757,318.629 146.063 C 322.272 146.705,327.338 148.806,329.498 150.570 C 330.286 151.214,331.426 151.996,332.032 152.308 C 332.637 152.619,333.465 153.394,333.871 154.029 C 334.703 155.328,337.829 159.616,339.242 161.396 C 344.394 167.887,344.209 183.477,338.903 190.029 C 338.297 190.777,336.631 192.970,335.201 194.903 C 333.758 196.853,332.072 198.721,331.414 199.097 C 330.762 199.471,329.674 200.217,328.997 200.756 C 326.283 202.916,321.676 204.462,313.931 205.812 C 302.504 207.805,287.718 198.463,283.314 186.467 C 281.965 182.793,281.918 182.778,271.636 182.777 C 263.338 182.777,263.305 182.774,262.322 181.928 L 261.336 181.079 261.336 175.435 C 261.336 167.598,260.412 168.239,272.038 168.014 C 282.555 167.811,282.311 167.892,283.458 164.234 C 285.231 158.581,291.313 151.687,297.012 148.868 C 298.269 148.246,299.792 147.474,300.397 147.151 C 303.045 145.738,311.384 144.528,314.060 145.169 M196.578 149.756 C 191.626 150.733,183.309 157.262,181.975 161.219 C 181.090 163.844,178.520 166.099,176.022 166.443 C 171.586 167.053,170.995 171.572,175.079 173.656 C 176.988 174.630,176.909 175.528,174.828 176.506 C 170.578 178.504,171.052 182.412,175.612 182.965 C 178.404 183.304,178.680 183.494,180.059 186.028 C 184.617 194.398,187.579 197.708,192.337 199.750 C 202.001 203.897,216.875 201.886,216.870 196.432 C 216.867 192.319,214.679 191.228,208.176 192.099 C 199.956 193.199,194.512 191.674,191.369 187.390 C 188.898 184.023,189.770 183.249,196.268 183.039 C 201.146 182.881,202.347 182.009,201.627 179.143 C 201.035 176.781,200.315 176.450,195.779 176.450 C 190.973 176.450,189.807 176.151,189.807 174.918 C 189.807 173.803,190.474 173.649,195.314 173.643 C 200.588 173.636,201.406 173.125,201.406 169.836 C 201.406 167.325,200.455 166.612,197.075 166.588 C 192.083 166.553,191.407 166.327,191.284 164.652 C 190.974 160.452,197.237 157.717,205.243 158.557 C 214.128 159.489,214.874 159.405,216.128 157.340 C 219.410 151.931,215.257 149.339,203.442 149.423 C 200.486 149.445,197.397 149.594,196.578 149.756 M84.256 162.053 C 79.583 162.839,73.462 170.423,73.462 175.429 C 73.462 177.659,75.541 182.017,77.889 184.708 C 81.136 188.431,82.311 188.928,87.880 188.928 L 92.280 188.928 94.838 187.409 C 97.317 185.937,99.100 184.056,99.895 182.074 C 104.763 169.942,96.935 159.922,84.256 162.053 M308.229 161.985 C 307.235 162.138,305.723 162.816,304.292 163.748 C 295.977 169.165,296.384 182.739,305.006 187.591 L 307.381 188.928 311.775 188.928 L 316.169 188.928 318.357 187.565 C 322.057 185.261,323.707 183.174,325.126 179.000 L 326.351 175.399 325.335 172.497 C 322.379 164.054,316.842 160.651,308.229 161.985 M156.678 217.962 C 161.496 222.692,161.500 222.670,155.026 229.331 C 146.755 237.842,146.860 237.571,149.710 243.107 C 153.358 250.192,151.858 263.121,146.625 269.706 C 146.049 270.431,145.075 271.807,144.461 272.764 C 140.830 278.422,129.166 283.656,120.187 283.656 C 118.285 283.656,109.141 282.018,108.176 281.504 C 107.352 281.065,107.034 280.861,103.515 278.515 C 102.355 277.742,100.852 276.896,100.176 276.634 C 98.605 276.027,97.778 275.313,97.112 273.990 C 96.820 273.410,96.212 272.540,95.761 272.056 C 95.016 271.258,94.457 270.319,92.374 266.366 C 89.841 261.556,89.586 247.906,91.925 242.283 C 93.840 237.681,98.524 231.527,101.582 229.597 C 102.645 228.925,103.831 228.094,104.218 227.750 C 109.726 222.840,124.370 221.333,131.549 224.938 C 136.756 227.553,137.105 227.392,147.303 217.674 C 151.766 213.423,152.063 213.432,156.678 217.962 M249.066 214.775 C 250.152 215.188,257.932 222.033,260.576 224.902 C 262.564 227.058,264.151 227.027,268.526 224.745 C 277.018 220.315,296.652 224.800,301.406 232.255 C 301.793 232.861,302.583 234.109,303.163 235.028 C 303.743 235.947,304.896 237.735,305.725 239.000 C 308.163 242.723,309.058 245.847,309.561 252.397 C 309.839 256.013,308.180 265.053,306.837 267.247 C 306.266 268.178,305.800 269.066,305.800 269.220 C 305.800 269.471,303.396 272.944,301.646 275.221 C 301.274 275.704,300.356 276.314,299.606 276.576 C 298.856 276.837,297.689 277.475,297.012 277.993 C 290.756 282.783,282.683 284.499,273.664 282.957 C 268.037 281.995,268.170 282.040,264.744 279.927 C 263.063 278.890,260.626 277.403,259.328 276.623 C 256.035 274.643,253.203 271.082,250.798 265.901 C 247.504 258.803,247.035 247.919,249.822 243.268 C 252.506 238.790,252.401 237.697,248.946 234.180 C 241.596 226.701,239.367 223.924,239.367 222.246 C 239.367 221.941,240.979 220.053,242.949 218.051 C 246.654 214.286,247.121 214.036,249.066 214.775 M205.348 236.219 C 207.221 236.739,207.189 236.577,207.381 246.449 C 207.587 256.980,207.379 256.415,211.558 257.807 C 220.163 260.673,228.322 270.381,230.226 280.020 C 232.396 291.003,227.794 303.009,219.066 309.139 C 217.689 310.105,215.723 311.510,214.696 312.260 C 207.070 317.830,192.030 317.651,184.442 311.899 C 183.715 311.347,181.992 310.105,180.614 309.139 C 171.872 303.007,167.282 291.088,169.432 280.102 C 171.342 270.340,179.184 260.991,188.118 257.824 C 192.282 256.347,192.062 256.943,192.267 246.573 C 192.492 235.187,191.941 235.983,199.649 235.902 C 202.065 235.877,204.630 236.019,205.348 236.219 M117.926 239.856 C 108.007 242.280,103.527 253.372,109.165 261.549 C 113.697 268.122,121.621 269.208,128.981 264.264 C 137.184 258.754,136.205 246.715,127.150 241.765 C 122.672 239.317,121.298 239.033,117.926 239.856 M276.702 239.743 C 266.903 242.746,262.346 252.012,266.793 259.892 C 272.024 269.161,284.527 270.008,290.518 261.499 C 292.858 258.177,293.580 252.987,292.297 248.723 C 290.668 243.308,281.775 238.188,276.702 239.743 M197.797 272.101 C 193.862 272.650,193.061 273.026,190.356 275.596 C 182.965 282.616,185.434 295.470,194.728 298.360 C 195.984 298.751,197.684 299.318,198.505 299.621 C 199.931 300.147,200.094 300.134,202.195 299.323 C 203.404 298.856,205.107 298.226,205.979 297.922 C 217.135 294.037,215.528 274.667,203.866 272.475 C 200.550 271.851,199.883 271.810,197.797 272.101 " stroke="none" fill="#3b57a4" fill-rule="evenodd"></path></g></svg>